<svg xmlns="http://www.w3.org/2000/svg" width="20.001" height="23" viewBox="0 0 20.001 23">
  <g id="Group_23" data-name="Group 23" transform="translate(-313.499 -178.501)">
    <g id="Page-1" transform="translate(333.501 190.501) rotate(90)">
      <g id="Dribbble-Light-Preview" transform="translate(-305 -6679)">
        <g id="icons" transform="translate(56 160)">
          <path id="arrow_right-_336_" data-name="arrow_right-[#336]" d="M249.366,6538.71a1.062,1.062,0,0,0,1.464,0l8.563-8.264a1.951,1.951,0,0,0,0-2.828l-8.625-8.325a1.063,1.063,0,0,0-1.454-.01.976.976,0,0,0-.011,1.425l7.894,7.617a.975.975,0,0,1,0,1.414l-7.831,7.558a.974.974,0,0,0,0,1.413" fill="#b3e604" fill-rule="evenodd"/>
        </g>
      </g>
    </g>
    <g id="Page-1-2" data-name="Page-1" transform="translate(333.501 184.501) rotate(90)">
      <g id="Dribbble-Light-Preview-2" data-name="Dribbble-Light-Preview" transform="translate(-305 -6679)">
        <g id="icons-2" data-name="icons" transform="translate(56 160)">
          <path id="arrow_right-_336_2" data-name="arrow_right-[#336]" d="M249.366,6538.71a1.062,1.062,0,0,0,1.464,0l8.563-8.264a1.951,1.951,0,0,0,0-2.828l-8.625-8.325a1.063,1.063,0,0,0-1.454-.01.976.976,0,0,0-.011,1.425l7.894,7.617a.975.975,0,0,1,0,1.414l-7.831,7.558a.974.974,0,0,0,0,1.413" fill="#b3e604" fill-rule="evenodd"/>
        </g>
      </g>
    </g>
    <g id="Page-1-3" data-name="Page-1" transform="translate(333.501 178.501) rotate(90)">
      <g id="Dribbble-Light-Preview-3" data-name="Dribbble-Light-Preview" transform="translate(-305 -6679)">
        <g id="icons-3" data-name="icons" transform="translate(56 160)">
          <path id="arrow_right-_336_3" data-name="arrow_right-[#336]" d="M249.366,6538.71a1.062,1.062,0,0,0,1.464,0l8.563-8.264a1.951,1.951,0,0,0,0-2.828l-8.625-8.325a1.063,1.063,0,0,0-1.454-.01.976.976,0,0,0-.011,1.425l7.894,7.617a.975.975,0,0,1,0,1.414l-7.831,7.558a.974.974,0,0,0,0,1.413" fill="#b3e604" fill-rule="evenodd"/>
        </g>
      </g>
    </g>
  </g>
</svg>
