<svg xmlns="http://www.w3.org/2000/svg" width="44.775" height="53" viewBox="0 0 44.775 53">
  <path id="Path_21" data-name="Path 21" d="M51.956,30.06,27.936,6.247a2.6,2.6,0,0,0-4.421,1.836v9.929L12.422,6.79A2.6,2.6,0,0,0,8,8.729v46.54a2.586,2.586,0,0,0,1.6,2.379,2.172,2.172,0,0,0,.983.207,2.586,2.586,0,0,0,1.836-.75L23.514,45.987v9.929a2.586,2.586,0,0,0,1.6,2.379,2.172,2.172,0,0,0,.983.207,2.586,2.586,0,0,0,1.836-.75l24.02-23.916a2.586,2.586,0,0,0,0-3.775Z" transform="translate(-7.999 -5.502)" fill="#b3e604"/>
</svg>
