<svg xmlns="http://www.w3.org/2000/svg" width="45.975" height="54.421" viewBox="0 0 45.975 54.421">
  <path id="Path_22" data-name="Path 22" d="M8.84,30.718,33.5,6.267a2.671,2.671,0,0,1,4.54,1.885V18.347L49.433,6.824a2.672,2.672,0,0,1,4.54,1.991V56.6a2.655,2.655,0,0,1-1.646,2.442,2.23,2.23,0,0,1-1.009.212,2.655,2.655,0,0,1-1.885-.77L38.043,47.072V57.267A2.655,2.655,0,0,1,36.4,59.71a2.23,2.23,0,0,1-1.009.212,2.655,2.655,0,0,1-1.885-.77L8.84,34.595a2.655,2.655,0,0,1,0-3.876Z" transform="translate(-7.999 -5.502)" fill="#7b7b7b"/>
</svg>
