<svg xmlns="http://www.w3.org/2000/svg" xmlns:xlink="http://www.w3.org/1999/xlink" width="261" height="71" viewBox="0 0 261 71">
  <defs>
    <linearGradient id="linear-gradient" x1="0.5" x2="0.5" y2="1" gradientUnits="objectBoundingBox">
      <stop offset="0" stop-color="#8aff9e"/>
      <stop offset="1" stop-color="#1ea419"/>
    </linearGradient>
  </defs>
  <g id="Group_38" data-name="Group 38" transform="translate(-1298 -768)">
    <rect id="Rectangle_108" data-name="Rectangle 108" width="261" height="71" rx="22" transform="translate(1298 768)" fill="url(#linear-gradient)"/>
    <g id="Group_30" data-name="Group 30" transform="translate(1318.189 777.162)">
      <g id="Group_2" data-name="Group 2" transform="translate(0.001 0)">
        <path id="Path_20" data-name="Path 20" d="M196.005,142.9a24.925,24.925,0,0,0-39.226,30.062l-3.536,12.911,13.212-3.465a24.913,24.913,0,0,0,11.91,3.033h.01a24.924,24.924,0,0,0,17.63-42.541Zm-17.628,38.333h-.008a20.69,20.69,0,0,1-10.546-2.888l-.754-.447-7.84,2.056,2.093-7.642-.493-.784a20.714,20.714,0,1,1,17.549,9.7Zm11.359-15.509c-.623-.311-3.684-1.818-4.255-2.026s-.986-.311-1.4.311-1.609,2.026-1.972,2.441-.726.467-1.349.156a17.009,17.009,0,0,1-5.008-3.09,18.758,18.758,0,0,1-3.464-4.313c-.363-.623-.039-.96.273-1.271.28-.279.623-.727.934-1.09a4.248,4.248,0,0,0,.623-1.038,1.146,1.146,0,0,0-.052-1.09c-.155-.311-1.4-3.376-1.92-4.622-.506-1.214-1.022-1.05-1.4-1.068-.363-.018-.778-.022-1.194-.022a2.288,2.288,0,0,0-1.661.779,6.981,6.981,0,0,0-2.18,5.194c0,3.066,2.232,6.024,2.543,6.44s4.391,6.7,10.638,9.4a35.825,35.825,0,0,0,3.55,1.312,8.541,8.541,0,0,0,3.922.247c1.2-.179,3.684-1.506,4.2-2.96a5.2,5.2,0,0,0,.363-2.96c-.156-.26-.571-.416-1.194-.727Z" transform="translate(-153.243 -135.593)" fill="#fff"/>
      </g>
    </g>
    <text id="Support" transform="translate(1386 814)" fill="#fff" font-size="26" font-family= "'Poppins', sans-serif" font-weight="500" letter-spacing="0.1em"><tspan x="0" y="0">SUPPORT</tspan></text>
  </g>
</svg>
